<mxfile host="Electron" agent="Mozilla/5.0 (Macintosh; Intel Mac OS X 10_15_7) AppleWebKit/537.36 (KHTML, like Gecko) draw.io/27.0.5 Chrome/134.0.6998.205 Electron/35.3.0 Safari/537.36" version="27.0.5">
  <diagram name="Page-1" id="xKyOSf35T9waI2xXeig_">
    <mxGraphModel dx="1426" dy="859" grid="1" gridSize="10" guides="1" tooltips="1" connect="1" arrows="1" fold="1" page="1" pageScale="1" pageWidth="850" pageHeight="1100" math="0" shadow="0">
      <root>
        <mxCell id="0" />
        <mxCell id="1" parent="0" />
        <mxCell id="TkwUDIs6g1M18RLXiUkU-1" value="VPC: [webapp-vpc, 172.31.0.0/16]" style="sketch=0;outlineConnect=0;gradientColor=none;html=1;whiteSpace=wrap;fontSize=12;fontStyle=0;shape=mxgraph.aws4.group;grIcon=mxgraph.aws4.group_vpc;strokeColor=light-dark(#8C4FFF, #e2dc22);fillColor=none;verticalAlign=top;align=left;spacingLeft=30;fontColor=#B6BABF;dashed=0;" vertex="1" parent="1">
          <mxGeometry x="180" y="110" width="1011" height="590" as="geometry" />
        </mxCell>
        <mxCell id="TkwUDIs6g1M18RLXiUkU-12" value="" style="group" vertex="1" connectable="0" parent="1">
          <mxGeometry x="873" y="170" width="270" height="490" as="geometry" />
        </mxCell>
        <mxCell id="TkwUDIs6g1M18RLXiUkU-13" value="" style="group" vertex="1" connectable="0" parent="TkwUDIs6g1M18RLXiUkU-12">
          <mxGeometry x="30" y="270" width="210" height="180" as="geometry" />
        </mxCell>
        <mxCell id="TkwUDIs6g1M18RLXiUkU-14" value="Subnet: app-1b [Zone:1b, IP: 172.31.102.0/24]" style="sketch=0;outlineConnect=0;gradientColor=none;html=1;whiteSpace=wrap;fontSize=12;fontStyle=0;shape=mxgraph.aws4.group;grIcon=mxgraph.aws4.group_subnet;strokeColor=#879196;fillColor=none;verticalAlign=top;align=left;spacingLeft=30;fontColor=#879196;dashed=0;" vertex="1" parent="TkwUDIs6g1M18RLXiUkU-13">
          <mxGeometry width="210" height="179.99999999999997" as="geometry" />
        </mxCell>
        <mxCell id="TkwUDIs6g1M18RLXiUkU-15" value="app2&lt;div&gt;.22&lt;/div&gt;" style="points=[[0,0],[0.25,0],[0.5,0],[0.75,0],[1,0],[1,0.25],[1,0.5],[1,0.75],[1,1],[0.75,1],[0.5,1],[0.25,1],[0,1],[0,0.75],[0,0.5],[0,0.25]];outlineConnect=0;gradientColor=none;html=1;whiteSpace=wrap;fontSize=12;fontStyle=0;container=1;pointerEvents=0;collapsible=0;recursiveResize=0;shape=mxgraph.aws4.group;grIcon=mxgraph.aws4.group_ec2_instance_contents;strokeColor=#D86613;fillColor=none;verticalAlign=top;align=left;spacingLeft=30;fontColor=#D86613;dashed=0;" vertex="1" parent="TkwUDIs6g1M18RLXiUkU-13">
          <mxGeometry x="57.27272727272726" y="43.448275862068954" width="76.36363636363636" height="37.24137931034482" as="geometry" />
        </mxCell>
        <mxCell id="TkwUDIs6g1M18RLXiUkU-16" value="app3&lt;div&gt;.23&lt;/div&gt;" style="points=[[0,0],[0.25,0],[0.5,0],[0.75,0],[1,0],[1,0.25],[1,0.5],[1,0.75],[1,1],[0.75,1],[0.5,1],[0.25,1],[0,1],[0,0.75],[0,0.5],[0,0.25]];outlineConnect=0;gradientColor=none;html=1;whiteSpace=wrap;fontSize=12;fontStyle=0;container=1;pointerEvents=0;collapsible=0;recursiveResize=0;shape=mxgraph.aws4.group;grIcon=mxgraph.aws4.group_ec2_instance_contents;strokeColor=#D86613;fillColor=none;verticalAlign=top;align=left;spacingLeft=30;fontColor=#D86613;dashed=0;" vertex="1" parent="TkwUDIs6g1M18RLXiUkU-13">
          <mxGeometry x="57.27272727272726" y="105.51724137931032" width="76.36363636363636" height="37.24137931034482" as="geometry" />
        </mxCell>
        <mxCell id="TkwUDIs6g1M18RLXiUkU-20" value="App-tier" style="points=[[0,0],[0.25,0],[0.5,0],[0.75,0],[1,0],[1,0.25],[1,0.5],[1,0.75],[1,1],[0.75,1],[0.5,1],[0.25,1],[0,1],[0,0.75],[0,0.5],[0,0.25]];outlineConnect=0;gradientColor=none;html=1;whiteSpace=wrap;fontSize=12;fontStyle=0;container=1;pointerEvents=0;collapsible=0;recursiveResize=0;shape=mxgraph.aws4.group;grIcon=mxgraph.aws4.group_vpc2;strokeColor=light-dark(#8C4FFF, #e2dc22);fillColor=none;verticalAlign=top;align=left;spacingLeft=30;fontColor=#AAB7B8;dashed=0;" vertex="1" parent="TkwUDIs6g1M18RLXiUkU-12">
          <mxGeometry width="270" height="490" as="geometry" />
        </mxCell>
        <mxCell id="TkwUDIs6g1M18RLXiUkU-43" value="Target gorup, TCP/8080" style="points=[[0,0],[0.25,0],[0.5,0],[0.75,0],[1,0],[1,0.25],[1,0.5],[1,0.75],[1,1],[0.75,1],[0.5,1],[0.25,1],[0,1],[0,0.75],[0,0.5],[0,0.25]];outlineConnect=0;gradientColor=none;html=1;whiteSpace=wrap;fontSize=12;fontStyle=0;container=1;pointerEvents=0;collapsible=0;recursiveResize=0;shape=mxgraph.aws4.group;grIcon=mxgraph.aws4.group_vpc2;strokeColor=#3333FF;fillColor=none;verticalAlign=top;align=left;spacingLeft=30;fontColor=#AAB7B8;dashed=1;dashPattern=8 8;" vertex="1" parent="TkwUDIs6g1M18RLXiUkU-20">
          <mxGeometry x="50" y="110" width="170" height="320" as="geometry" />
        </mxCell>
        <mxCell id="TkwUDIs6g1M18RLXiUkU-27" value="" style="group" vertex="1" connectable="0" parent="TkwUDIs6g1M18RLXiUkU-12">
          <mxGeometry x="28" y="67" width="210.00000000000003" height="150" as="geometry" />
        </mxCell>
        <mxCell id="TkwUDIs6g1M18RLXiUkU-18" value="Subnet: app-1a [Zone:1a, IP: 172.31.101.0/24]" style="sketch=0;outlineConnect=0;gradientColor=none;html=1;whiteSpace=wrap;fontSize=12;fontStyle=0;shape=mxgraph.aws4.group;grIcon=mxgraph.aws4.group_subnet;strokeColor=#879196;fillColor=none;verticalAlign=top;align=left;spacingLeft=30;fontColor=#879196;dashed=0;" vertex="1" parent="TkwUDIs6g1M18RLXiUkU-27">
          <mxGeometry width="210.00000000000003" height="150" as="geometry" />
        </mxCell>
        <mxCell id="TkwUDIs6g1M18RLXiUkU-19" value="app1, .21" style="points=[[0,0],[0.25,0],[0.5,0],[0.75,0],[1,0],[1,0.25],[1,0.5],[1,0.75],[1,1],[0.75,1],[0.5,1],[0.25,1],[0,1],[0,0.75],[0,0.5],[0,0.25]];outlineConnect=0;gradientColor=none;html=1;whiteSpace=wrap;fontSize=12;fontStyle=0;container=1;pointerEvents=0;collapsible=0;recursiveResize=0;shape=mxgraph.aws4.group;grIcon=mxgraph.aws4.group_ec2_instance_contents;strokeColor=#D86613;fillColor=none;verticalAlign=top;align=left;spacingLeft=30;fontColor=#D86613;dashed=0;" vertex="1" parent="TkwUDIs6g1M18RLXiUkU-27">
          <mxGeometry x="28" y="76.94" width="90" height="57.06" as="geometry" />
        </mxCell>
        <mxCell id="TkwUDIs6g1M18RLXiUkU-26" value="db, .99" style="sketch=0;outlineConnect=0;fontColor=#232F3E;gradientColor=none;strokeColor=#ffffff;fillColor=#232F3E;dashed=0;verticalLabelPosition=middle;verticalAlign=bottom;align=center;html=1;whiteSpace=wrap;fontSize=10;fontStyle=1;spacing=3;shape=mxgraph.aws4.productIcon;prIcon=mxgraph.aws4.rds;" vertex="1" parent="TkwUDIs6g1M18RLXiUkU-27">
          <mxGeometry x="138" y="75" width="50" height="70" as="geometry" />
        </mxCell>
        <mxCell id="TkwUDIs6g1M18RLXiUkU-33" value="" style="edgeStyle=orthogonalEdgeStyle;rounded=0;orthogonalLoop=1;jettySize=auto;html=1;" edge="1" parent="1" source="TkwUDIs6g1M18RLXiUkU-28" target="TkwUDIs6g1M18RLXiUkU-29">
          <mxGeometry relative="1" as="geometry" />
        </mxCell>
        <mxCell id="TkwUDIs6g1M18RLXiUkU-28" value="Client" style="outlineConnect=0;dashed=0;verticalLabelPosition=bottom;verticalAlign=top;align=center;html=1;shape=mxgraph.aws3.management_console;fillColor=#D2D3D3;gradientColor=none;" vertex="1" parent="1">
          <mxGeometry x="40" y="360" width="63" height="63" as="geometry" />
        </mxCell>
        <mxCell id="TkwUDIs6g1M18RLXiUkU-36" value="" style="edgeStyle=orthogonalEdgeStyle;rounded=0;orthogonalLoop=1;jettySize=auto;html=1;entryX=0;entryY=0.5;entryDx=0;entryDy=0;" edge="1" parent="1" source="TkwUDIs6g1M18RLXiUkU-29" target="TkwUDIs6g1M18RLXiUkU-3">
          <mxGeometry relative="1" as="geometry" />
        </mxCell>
        <mxCell id="TkwUDIs6g1M18RLXiUkU-29" value="web-lb" style="outlineConnect=0;dashed=0;verticalLabelPosition=bottom;verticalAlign=top;align=center;html=1;shape=mxgraph.aws3.application_load_balancer;fillColor=#F58536;gradientColor=none;" vertex="1" parent="1">
          <mxGeometry x="220" y="361.5" width="60" height="60" as="geometry" />
        </mxCell>
        <mxCell id="TkwUDIs6g1M18RLXiUkU-30" value="Text" style="text;html=1;align=center;verticalAlign=middle;whiteSpace=wrap;rounded=0;" vertex="1" parent="1">
          <mxGeometry x="500" y="430" width="60" height="30" as="geometry" />
        </mxCell>
        <mxCell id="TkwUDIs6g1M18RLXiUkU-32" value="" style="edgeStyle=orthogonalEdgeStyle;rounded=0;orthogonalLoop=1;jettySize=auto;html=1;" edge="1" parent="1" source="TkwUDIs6g1M18RLXiUkU-31" target="TkwUDIs6g1M18RLXiUkU-29">
          <mxGeometry relative="1" as="geometry" />
        </mxCell>
        <mxCell id="TkwUDIs6g1M18RLXiUkU-31" value="Listener (http traffic)&lt;div&gt;TCP/80&lt;/div&gt;" style="text;html=1;align=center;verticalAlign=middle;whiteSpace=wrap;rounded=0;" vertex="1" parent="1">
          <mxGeometry x="215" y="270" width="70" height="50" as="geometry" />
        </mxCell>
        <mxCell id="TkwUDIs6g1M18RLXiUkU-10" value="Web-tier" style="points=[[0,0],[0.25,0],[0.5,0],[0.75,0],[1,0],[1,0.25],[1,0.5],[1,0.75],[1,1],[0.75,1],[0.5,1],[0.25,1],[0,1],[0,0.75],[0,0.5],[0,0.25]];outlineConnect=0;gradientColor=none;html=1;whiteSpace=wrap;fontSize=12;fontStyle=0;container=1;pointerEvents=0;collapsible=0;recursiveResize=0;shape=mxgraph.aws4.group;grIcon=mxgraph.aws4.group_vpc2;strokeColor=#8C4FFF;fillColor=none;verticalAlign=top;align=left;spacingLeft=30;fontColor=#AAB7B8;dashed=0;" vertex="1" parent="1">
          <mxGeometry x="370" y="150" width="310" height="530" as="geometry" />
        </mxCell>
        <mxCell id="TkwUDIs6g1M18RLXiUkU-35" value="Target gorup, TCP/80" style="points=[[0,0],[0.25,0],[0.5,0],[0.75,0],[1,0],[1,0.25],[1,0.5],[1,0.75],[1,1],[0.75,1],[0.5,1],[0.25,1],[0,1],[0,0.75],[0,0.5],[0,0.25]];outlineConnect=0;gradientColor=none;html=1;whiteSpace=wrap;fontSize=12;fontStyle=0;container=1;pointerEvents=0;collapsible=0;recursiveResize=0;shape=mxgraph.aws4.group;grIcon=mxgraph.aws4.group_vpc2;strokeColor=#3333FF;fillColor=none;verticalAlign=top;align=left;spacingLeft=30;fontColor=#AAB7B8;dashed=1;dashPattern=8 8;" vertex="1" parent="1">
          <mxGeometry x="430" y="240" width="180" height="350" as="geometry" />
        </mxCell>
        <mxCell id="TkwUDIs6g1M18RLXiUkU-44" value="" style="edgeStyle=orthogonalEdgeStyle;rounded=0;orthogonalLoop=1;jettySize=auto;html=1;entryX=0;entryY=0.5;entryDx=0;entryDy=0;" edge="1" parent="1" source="TkwUDIs6g1M18RLXiUkU-37" target="TkwUDIs6g1M18RLXiUkU-19">
          <mxGeometry relative="1" as="geometry" />
        </mxCell>
        <mxCell id="TkwUDIs6g1M18RLXiUkU-37" value="app-lb" style="outlineConnect=0;dashed=0;verticalLabelPosition=bottom;verticalAlign=top;align=center;html=1;shape=mxgraph.aws3.application_load_balancer;fillColor=#F58536;gradientColor=none;" vertex="1" parent="1">
          <mxGeometry x="740" y="360" width="60" height="60" as="geometry" />
        </mxCell>
        <mxCell id="TkwUDIs6g1M18RLXiUkU-41" value="" style="edgeStyle=orthogonalEdgeStyle;rounded=0;orthogonalLoop=1;jettySize=auto;html=1;" edge="1" parent="1" source="TkwUDIs6g1M18RLXiUkU-40" target="TkwUDIs6g1M18RLXiUkU-37">
          <mxGeometry relative="1" as="geometry" />
        </mxCell>
        <mxCell id="TkwUDIs6g1M18RLXiUkU-40" value="Listener&lt;div&gt;TCP/8080&lt;/div&gt;" style="text;html=1;align=center;verticalAlign=middle;whiteSpace=wrap;rounded=0;" vertex="1" parent="1">
          <mxGeometry x="735" y="270" width="70" height="50" as="geometry" />
        </mxCell>
        <mxCell id="TkwUDIs6g1M18RLXiUkU-2" value="Subnet: web-1a [Zone:1a, IP: 172.31.1.0/24]" style="sketch=0;outlineConnect=0;gradientColor=none;html=1;whiteSpace=wrap;fontSize=12;fontStyle=0;shape=mxgraph.aws4.group;grIcon=mxgraph.aws4.group_subnet;strokeColor=#879196;fillColor=none;verticalAlign=top;align=left;spacingLeft=30;fontColor=#879196;dashed=0;" vertex="1" parent="1">
          <mxGeometry x="411" y="210" width="210.00000000000003" height="150" as="geometry" />
        </mxCell>
        <mxCell id="TkwUDIs6g1M18RLXiUkU-3" value="Web-1: .21" style="points=[[0,0],[0.25,0],[0.5,0],[0.75,0],[1,0],[1,0.25],[1,0.5],[1,0.75],[1,1],[0.75,1],[0.5,1],[0.25,1],[0,1],[0,0.75],[0,0.5],[0,0.25]];outlineConnect=0;gradientColor=none;html=1;whiteSpace=wrap;fontSize=12;fontStyle=0;container=1;pointerEvents=0;collapsible=0;recursiveResize=0;shape=mxgraph.aws4.group;grIcon=mxgraph.aws4.group_ec2_instance_contents;strokeColor=#D86613;fillColor=none;verticalAlign=top;align=left;spacingLeft=30;fontColor=#D86613;dashed=0;" vertex="1" parent="1">
          <mxGeometry x="453" y="281.94117647058823" width="120.00000000000001" height="61.764705882352935" as="geometry" />
        </mxCell>
        <mxCell id="TkwUDIs6g1M18RLXiUkU-4" value="Subnet: web-1b [Zone:1b, IP: 172.31.2.0/24]" style="sketch=0;outlineConnect=0;gradientColor=none;html=1;whiteSpace=wrap;fontSize=12;fontStyle=0;shape=mxgraph.aws4.group;grIcon=mxgraph.aws4.group_subnet;strokeColor=#879196;fillColor=none;verticalAlign=top;align=left;spacingLeft=30;fontColor=#879196;dashed=0;" vertex="1" parent="1">
          <mxGeometry x="411" y="400" width="210" height="220" as="geometry" />
        </mxCell>
        <mxCell id="TkwUDIs6g1M18RLXiUkU-5" value="web-2: .22" style="points=[[0,0],[0.25,0],[0.5,0],[0.75,0],[1,0],[1,0.25],[1,0.5],[1,0.75],[1,1],[0.75,1],[0.5,1],[0.25,1],[0,1],[0,0.75],[0,0.5],[0,0.25]];outlineConnect=0;gradientColor=none;html=1;whiteSpace=wrap;fontSize=12;fontStyle=0;container=1;pointerEvents=0;collapsible=0;recursiveResize=0;shape=mxgraph.aws4.group;grIcon=mxgraph.aws4.group_ec2_instance_contents;strokeColor=#D86613;fillColor=none;verticalAlign=top;align=left;spacingLeft=30;fontColor=#D86613;dashed=0;" vertex="1" parent="1">
          <mxGeometry x="468.27272727272725" y="453.1034482758621" width="76.36363636363636" height="45.51724137931034" as="geometry" />
        </mxCell>
        <mxCell id="TkwUDIs6g1M18RLXiUkU-6" value="web-3: .23" style="points=[[0,0],[0.25,0],[0.5,0],[0.75,0],[1,0],[1,0.25],[1,0.5],[1,0.75],[1,1],[0.75,1],[0.5,1],[0.25,1],[0,1],[0,0.75],[0,0.5],[0,0.25]];outlineConnect=0;gradientColor=none;html=1;whiteSpace=wrap;fontSize=12;fontStyle=0;container=1;pointerEvents=0;collapsible=0;recursiveResize=0;shape=mxgraph.aws4.group;grIcon=mxgraph.aws4.group_ec2_instance_contents;strokeColor=#D86613;fillColor=none;verticalAlign=top;align=left;spacingLeft=30;fontColor=#D86613;dashed=0;" vertex="1" parent="1">
          <mxGeometry x="468.27272727272725" y="528.9655172413793" width="76.36363636363636" height="45.51724137931034" as="geometry" />
        </mxCell>
        <mxCell id="TkwUDIs6g1M18RLXiUkU-42" style="edgeStyle=orthogonalEdgeStyle;rounded=0;orthogonalLoop=1;jettySize=auto;html=1;entryX=0;entryY=0.5;entryDx=0;entryDy=0;entryPerimeter=0;" edge="1" parent="1" source="TkwUDIs6g1M18RLXiUkU-3" target="TkwUDIs6g1M18RLXiUkU-37">
          <mxGeometry relative="1" as="geometry" />
        </mxCell>
      </root>
    </mxGraphModel>
  </diagram>
</mxfile>
